<svg xmlns="http://www.w3.org/2000/svg" xmlns:xlink="http://www.w3.org/1999/xlink" viewBox="0 0 30 30" fill="#b91d73">
  <path d="M15 3C14.168432 3 13.456063 3.5067238 13.154297 4.2285156L2.3007812 22.947266L2.3007812 22.949219 A 2 2 0 0 0 2 24 A 2 2 0 0 0 4 26 A 2 2 0 0 0 4.140625 25.994141L4.1445312 26L15 26L25.855469 26L25.859375 25.992188 A 2 2 0 0 0 26 26 A 2 2 0 0 0 28 24 A 2 2 0 0 0 27.699219 22.947266L27.683594 22.919922 A 2 2 0 0 0 27.681641 22.917969L16.845703 4.2285156C16.543937 3.5067238 15.831568 3 15 3 z M 13.787109 11.359375L16.212891 11.359375L16.011719 17.832031L13.988281 17.832031L13.787109 11.359375 z M 15.003906 19.810547C15.825906 19.810547 16.318359 20.252813 16.318359 21.007812C16.318359 21.748812 15.825906 22.189453 15.003906 22.189453C14.175906 22.189453 13.679688 21.748813 13.679688 21.007812C13.679688 20.252813 14.174906 19.810547 15.003906 19.810547 z" fill="#b91d73" />
</svg>